#!OML:ASF \\sashay\E\Suitcase\Project 1\Capture day 1\Session 1\Male1.ASF
:FULLY-SPECIFIED
:DEGREES
1564
root -0.958542 17.7086 9.16488 8.91967 -4.38359 0.720975
lowerback 11.868 -2.30098 11.3127
upperback 5.74548 -1.70579 9.90188
thorax -0.542662 -0.79864 4.36492
lowerneck -6.04643 -6.41597 -4.92681
upperneck 37.397 -6.45735 -6.61327
head 13.637 -4.23401 -2.58989
rclavicle 9.54166e-015 -9.54166e-014
rhumerus -12.3041 -8.95955 -58.015
rradius 22.6863
rwrist 0.953092
rhand -16.1913 16.2573
rfingers 7.12502
rthumb 10.0156 -13.4844
lclavicle 9.54166e-015 -9.54166e-014
lhumerus -31.438 -13.9633 97.2431
lradius 47.1957
lwrist 1.63784
lhand 0.810508 44.4876
lfingers 7.12502
lthumb 26.3665 72.6745
rfemur -12.7765 0.888678 20.5279
rtibia 14.2908
rfoot -9.20793 -8.66338
rtoes 13.7167
lfemur -12.1755 2.81619 -19.1486
ltibia 17.5063
lfoot -10.7654 5.00697
ltoes -2.74597
1565
root -0.966529 17.7057 9.15822 8.88209 -4.35523 0.891907
lowerback 11.7371 -2.20371 11.0819
upperback 5.97297 -1.66175 9.86691
thorax -0.224026 -0.768576 4.43777
lowerneck -6.27294 -6.48237 -4.67337
upperneck 37.2965 -6.54377 -6.73
head 13.617 -4.25003 -2.69321
rclavicle 3.97569e-014 4.13472e-014
rhumerus -11.9644 -8.53892 -58.1346
rradius 22.8759
rwrist -0.211475
rhand -16.0651 15.8689
rfingers 7.12502
rthumb 10.1374 -13.8669
lclavicle 3.97569e-014 4.13472e-014
lhumerus -31.2418 -14.0977 97.1638
lradius 47.1813
lwrist 1.60978
lhand -0.0172436 43.8282
lfingers 7.12502
lthumb 25.5739 72.1313
rfemur -12.8014 1.0393 20.3621
rtibia 14.3408
rfoot -9.26081 -8.84748
rtoes 13.8095
lfemur -12.1441 2.83173 -19.3089
ltibia 17.4692
lfoot -10.8117 4.9685
ltoes -3.05593
1566
root -0.972479 17.7006 9.14429 8.90954 -4.39495 0.397531
lowerback 11.7588 -2.03008 11.5658
upperback 6.12627 -1.40407 10.0266
thorax -0.0677448 -0.627935 4.31557
lowerneck -6.4106 -6.62419 -4.81934
upperneck 37.3115 -6.75311 -6.57917
head 13.666 -4.33683 -2.64303
rclavicle -1.59028e-015 0
rhumerus -11.7673 -9.38967 -57.9633
rradius 22.7746
rwrist 0.00511273
rhand -15.6621 15.7687
rfingers 7.12502
rthumb 10.5261 -13.9477
lclavicle -1.59028e-015 0
lhumerus -31.0499 -14.2499 97.2529
lradius 47.1548
lwrist 1.49691
lhand 0.510276 44.366
lfingers 7.12502
lthumb 26.079 72.5956
rfemur -12.8518 1.3864 20.9115
rtibia 14.3274
rfoot -9.24663 -9.06713
rtoes 14.0003
lfemur -12.1926 2.76781 -18.7316
ltibia 17.5238
lfoot -10.884 5.14079
ltoes -3.12692
1567
root -0.966767 17.6989 9.12761 8.86194 -4.18109 0.4369
lowerback 11.8294 -2.07404 11.6584
upperback 6.24171 -1.45504 10.0081
thorax 0.0169128 -0.646001 4.25331
lowerneck -6.60442 -6.66089 -4.82483
upperneck 37.3493 -6.8185 -6.48747
head 13.7289 -4.35313 -2.62624
rclavicle 3.02153e-014 0
rhumerus -11.7725 -9.29796 -58.0712
rradius 23.026
rwrist -0.316176
rhand -15.7979 16.1124
rfingers 7.12502
rthumb 10.3952 -13.6107
lclavicle 3.02153e-014 0
lhumerus -30.8601 -14.2052 97.1644
lradius 47.0361
lwrist 1.57972
lhand 0.639667 44.4247
lfingers 7.12502
lthumb 26.2029 72.636
rfemur -12.8455 1.04929 20.8833
rtibia 14.3549
rfoot -9.26285 -8.93397
rtoes 14.1644
lfemur -12.1657 2.42319 -18.7639
ltibia 17.4846
lfoot -10.9261 5.26408
ltoes -2.91284
1568
root -0.973301 17.6964 9.11249 8.93475 -4.1941 0.388982
lowerback 11.9798 -1.97493 11.6452
upperback 6.22255 -1.29394 10.0812
thorax -0.0820441 -0.571346 4.32545
lowerneck -6.63183 -6.73123 -5.04056
upperneck 37.4249 -6.9274 -6.31931
head 13.7902 -4.4053 -2.5439
rclavicle -2.8625e-014 -2.8625e-014
rhumerus -11.6618 -8.96619 -58.0218
rradius 23.0208
rwrist -0.542467
rhand -16.0715 16.1119
rfingers 7.12502
rthumb 10.1311 -13.6242
lclavicle -2.8625e-014 -2.8625e-014
lhumerus -30.9724 -14.1134 97.2612
lradius 47.1129
lwrist 1.22648
lhand 0.0714862 44.2413
lfingers 7.12502
lthumb 25.6588 72.5322
rfemur -12.9247 1.29912 20.9499
rtibia 14.2099
rfoot -9.16869 -9.14974
rtoes 14.3394
lfemur -12.3584 2.36799 -18.6689
ltibia 17.568
lfoot -10.9747 5.33408
ltoes -2.37454
1569
root -0.982545 17.6958 9.10348 8.8791 -4.21227 0.471922
lowerback 12.2193 -1.9036 11.5289
upperback 6.18974 -1.16118 10.088
thorax -0.24673 -0.513443 4.38727
lowerneck -6.47291 -6.78035 -5.20399
upperneck 37.4069 -7.0305 -6.15235
head 13.7644 -4.44821 -2.45447
rclavicle -2.06736e-014 1.01778e-013
rhumerus -12.1182 -8.49784 -57.9481
rradius 23.6053
rwrist -0.924237
rhand -15.779 16.0763
rfingers 7.12502
rthumb 10.4134 -13.6458
lclavicle -2.06736e-014 1.01778e-013
lhumerus -31.1621 -14.2371 97.3678
lradius 47.1333
lwrist 1.43063
lhand 0.480672 44.6071
lfingers 7.12502
lthumb 26.0507 72.8409
rfemur -12.951 1.51859 20.8707
rtibia 14.2981
rfoot -9.23046 -9.33045
rtoes 14.3177
lfemur -12.2785 2.28365 -18.7169
ltibia 17.4338
lfoot -10.9542 5.41448
ltoes -1.75967
1570
root -0.980237 17.6972 9.09849 8.92352 -4.04606 0.225045
lowerback 12.3128 -1.94563 11.848
upperback 6.17997 -1.1604 10.175
thorax -0.306367 -0.510002 4.31262
lowerneck -6.43868 -6.79861 -5.1855
upperneck 37.3054 -7.06816 -6.13526
head 13.7093 -4.45883 -2.44747
rclavicle -3.18055e-015 -8.26944e-014
rhumerus -12.0229 -9.69722 -57.9623
rradius 23.5736
rwrist 0.57258
rhand -15.6652 16.0717
rfingers 7.12502
rthumb 10.5231 -13.6449
lclavicle -3.18055e-015 -8.26944e-014
lhumerus -31.2821 -14.2202 97.4547
lradius 46.8989
lwrist 1.64033
lhand 0.104147 44.202
lfingers 7.12502
lthumb 25.6901 72.4884
rfemur -12.973 1.1589 21.1594
rtibia 14.3063
rfoot -9.23889 -9.07663
rtoes 14.0639
lfemur -12.2888 2.17567 -18.4503
ltibia 17.3449
lfoot -10.9832 5.40919
ltoes -1.2327
1571
root -0.982695 17.6983 9.08282 8.9656 -4.05328 0.634641
lowerback 12.4721 -1.88138 11.4214
upperback 6.16006 -1.08853 10.1129
thorax -0.415349 -0.484857 4.47223
lowerneck -6.29886 -6.83346 -5.23793
upperneck 37.1379 -7.14334 -6.05444
head 13.6087 -4.48605 -2.39903
rclavicle 1.90833e-014 -3.18055e-014
rhumerus -12.1379 -8.4981 -58.0096
rradius 23.9363
rwrist -0.973482
rhand -15.8921 16.1826
rfingers 7.12502
rthumb 10.3042 -13.5449
lclavicle 1.90833e-014 -3.18055e-014
lhumerus -31.2527 -13.8745 97.439
lradius 46.8483
lwrist 1.50128
lhand -0.0975708 44.0343
lfingers 7.12502
lthumb 25.4969 72.3485
rfemur -13.1053 1.14955 20.7117
rtibia 14.2914
rfoot -9.2091 -9.10468
rtoes 13.94
lfemur -12.4089 2.10847 -18.9008
ltibia 17.2667
lfoot -10.9548 5.43368
ltoes -0.835396
1572
root -0.996018 17.7001 9.07395 9.02395 -3.90479 0.574866
lowerback 12.5191 -1.87048 11.3018
upperback 6.18266 -1.07918 10.2318
thorax -0.412798 -0.48438 4.66807
lowerneck -6.30175 -6.84976 -5.29718
upperneck 37.0784 -7.16371 -6.02256
head 13.5878 -4.49733 -2.37586
rclavicle -2.70347e-014 -3.81667e-014
rhumerus -12.2122 -8.1947 -58.062
rradius 24.0886
rwrist -1.0667
rhand -15.5965 16.0137
rfingers 7.12502
rthumb 10.5894 -13.6995
lclavicle -2.70347e-014 -3.81667e-014
lhumerus -31.2442 -14.0392 97.5262
lradius 46.7987
lwrist 1.65031
lhand -0.363201 44.4275
lfingers 7.12502
lthumb 25.2424 72.7778
rfemur -13.1547 1.44779 20.8076
rtibia 14.2742
rfoot -9.29963 -9.51278
rtoes 14.0363
lfemur -12.5115 1.99642 -18.774
ltibia 17.2078
lfoot -10.9511 5.42129
ltoes -0.613793
1573
root -0.999569 17.7007 9.05765 9.1158 -3.85562 0.478146
lowerback 12.6677 -1.90319 11.3257
upperback 6.19735 -1.09265 10.2678
thorax -0.476632 -0.49312 4.70162
lowerneck -6.37668 -6.80123 -5.18137
upperneck 37.0743 -7.08891 -6.08646
head 13.592 -4.45806 -2.41397
rclavicle -7.95139e-015 4.45278e-014
rhumerus -12.1575 -7.73123 -58.2732
rradius 24.3465
rwrist -1.40934
rhand -15.8961 16.0651
rfingers 7.12502
rthumb 10.3004 -13.6627
lclavicle -7.95139e-015 4.45278e-014
lhumerus -31.2614 -13.8502 97.4113
lradius 46.7124
lwrist 1.29699
lhand 0.535805 44.1115
lfingers 7.12502
lthumb 26.1035 72.3375
rfemur -13.2877 1.42167 20.938
rtibia 14.2249
rfoot -9.24708 -9.51866
rtoes 14.1547
lfemur -12.6834 1.98037 -18.6584
ltibia 17.1803
lfoot -10.9333 5.42208
ltoes -0.511877
1574
root -0.988075 17.7039 9.0454 9.14187 -3.55477 0.630981
lowerback 12.7246 -1.91231 11.5227
upperback 6.2257 -1.07272 10.2976
thorax -0.476566 -0.478323 4.62604
lowerneck -6.58865 -6.89916 -5.40969
upperneck 37.1229 -7.18626 -6.01523
head 13.6788 -4.51785 -2.37459
rclavicle -4.92986e-014 -6.67916e-014
rhumerus -11.9955 -7.71841 -58.1379
rradius 24.2167
rwrist -1.29512
rhand -16.1992 16.5607
rfingers 7.12502
rthumb 10.008 -13.1813
lclavicle -4.92986e-014 -6.67916e-014
lhumerus -31.146 -13.9532 97.6387
lradius 46.6823
lwrist 1.55565
lhand 0.316416 44.5531
lfingers 7.12502
lthumb 25.8934 72.81
rfemur -13.3252 0.552038 20.8146
rtibia 14.2089
rfoot -9.19937 -8.97533
rtoes 14.115
lfemur -12.7691 1.83318 -18.868
ltibia 17.1481
lfoot -10.9537 5.30295
ltoes -0.60615
1575
root -0.993518 17.7051 9.03602 9.17756 -3.54035 0.276236
lowerback 12.8033 -1.88031 11.8492
upperback 6.29126 -0.988129 10.4269
thorax -0.444366 -0.431223 4.58124
lowerneck -6.58011 -6.90477 -5.3808
upperneck 37.0965 -7.17252 -6.08912
head 13.6597 -4.51545 -2.4042
rclavicle -1.27222e-014 -6.99722e-014
rhumerus -11.9552 -7.96259 -58.1722
rradius 24.4254
rwrist -1.26804
rhand -16.3818 16.6306
rfingers 7.12502
rthumb 9.8318 -13.1199
lclavicle -1.27222e-014 -6.99722e-014
lhumerus -31.1938 -13.8979 97.6287
lradius 46.8547
lwrist 1.52112
lhand 0.361269 44.6253
lfingers 7.12502
lthumb 25.9364 72.8759
rfemur -13.3671 0.66179 21.2263
rtibia 14.1781
rfoot -9.16752 -9.03445
rtoes 14.1343
lfemur -12.8384 1.85809 -18.4646
ltibia 17.1614
lfoot -10.9357 5.39007
ltoes -0.781684
1576
root -0.997919 17.7026 9.02811 9.15731 -3.60597 0.697666
lowerback 12.9317 -1.79376 11.3884
upperback 6.31588 -0.905921 10.4005
thorax -0.488611 -0.399887 4.79539
lowerneck -6.48564 -6.91763 -5.43036
upperneck 37.0582 -7.17458 -6.11976
head 13.6239 -4.52417 -2.40072
rclavicle -1.74931e-014 -3.18055e-014
rhumerus -12.0244 -7.56799 -58.2064
rradius 24.8138
rwrist -1.36723
rhand -16.2374 15.8266
rfingers 7.12502
rthumb 9.97116 -13.9173
lclavicle -1.74931e-014 -3.18055e-014
lhumerus -31.1411 -14.0789 97.7843
lradius 46.6481
lwrist 1.34716
lhand 0.751111 44.2331
lfingers 7.12502
lthumb 26.3096 72.4285
rfemur -13.4128 0.81621 20.7496
rtibia 14.1823
rfoot -9.1688 -9.17058
rtoes 14.1334
lfemur -12.8402 1.92574 -18.9498
ltibia 17.1028
lfoot -10.8765 5.43349
ltoes -1.1314
1577
root -0.975296 17.7053 9.00997 9.24797 -3.09391 0.573201
lowerback 12.9569 -2.01211 11.9856
upperback 6.28836 -1.10945 10.4199
thorax -0.532019 -0.48936 4.52216
lowerneck -6.44161 -6.88315 -5.47344
upperneck 36.9855 -7.15359 -6.00919
head 13.5894 -4.50563 -2.34065
rclavicle -3.81667e-014 -4.45278e-014
rhumerus -11.7956 -8.15529 -58.3437
rradius 24.7718
rwrist -0.888754
rhand -16.496 15.8302
rfingers 7.12502
rthumb 9.72162 -13.9254
lclavicle -3.81667e-014 -4.45278e-014
lhumerus -31.1118 -13.9184 97.7819
lradius 46.7051
lwrist 1.13004
lhand 0.418511 44.5439
lfingers 7.12502
lthumb 25.9912 72.7864
rfemur -13.4877 -0.581164 20.9358
rtibia 14.1684
rfoot -9.07431 -8.26408
rtoes 13.802
lfemur -12.97 1.79136 -18.9083
ltibia 17.0851
lfoot -10.833 5.2321
ltoes -1.73428
